<?xml version="1.0" encoding="utf-8"?>
<!-- Generator: Adobe Illustrator 16.0.0, SVG Export Plug-In . SVG Version: 6.00 Build 0)  -->
<!DOCTYPE svg PUBLIC "-//W3C//DTD SVG 1.1//EN" "http://www.w3.org/Graphics/SVG/1.1/DTD/svg11.dtd">
<svg version="1.1" id="Capa_1" xmlns="http://www.w3.org/2000/svg" xmlns:xlink="http://www.w3.org/1999/xlink" x="0px" y="0px"
	 width="500px" height="500px" viewBox="0 0 500 500" enable-background="new 0 0 500 500" xml:space="preserve">
<g>
	<path fill="#4F0101" d="M250-0.004c-138.071,0-250,111.929-250,250c0,138.071,111.929,250,250,250c138.07,0,250-111.929,250-250
		C500,111.924,388.071-0.004,250-0.004z M183.919,373.182H124.18v-179.73h59.739V373.182z M154.047,168.928h-0.388
		c-20.045,0-33.031-13.806-33.031-31.062c0-17.63,13.374-31.048,33.815-31.048c20.446,0,33.01,13.418,33.406,31.048
		C187.85,155.122,174.891,168.928,154.047,168.928z M399.372,373.182h-59.757V277.02c0-24.145-8.628-40.634-30.265-40.634
		c-16.511,0-26.319,11.101-30.651,21.85c-1.573,3.842-1.979,9.177-1.979,14.563v100.379h-59.762c0,0,0.803-162.867,0-179.726h59.767
		v25.469c7.941-12.22,22.104-29.689,53.856-29.689c39.314,0,68.79,25.687,68.79,80.881V373.182z"/>
	<path fill="#4F0101" d="M276.726,219.509v-0.588c-0.121,0.201-0.29,0.396-0.396,0.588H276.726z"/>
</g>
</svg>
