<?xml version="1.0" encoding="utf-8"?>
<!-- Generator: Adobe Illustrator 16.0.0, SVG Export Plug-In . SVG Version: 6.00 Build 0)  -->
<!DOCTYPE svg PUBLIC "-//W3C//DTD SVG 1.1//EN" "http://www.w3.org/Graphics/SVG/1.1/DTD/svg11.dtd">
<svg version="1.1" id="Capa_1" xmlns="http://www.w3.org/2000/svg" xmlns:xlink="http://www.w3.org/1999/xlink" x="0px" y="0px"
	 width="500px" height="500px" viewBox="0 0 500 500" enable-background="new 0 0 500 500" xml:space="preserve">
<path fill="#4F0101" d="M250.002,0C111.932,0,0.004,111.928,0.004,249.998c0,138.071,111.928,249.998,249.998,249.998
	C388.072,499.995,500,388.068,500,249.998C500,111.928,388.072,0,250.002,0z M373.312,210.594c0.116,2.558,0.174,5.138,0.174,7.728
	c0,78.973-60.108,170.026-170.022,170.026c-33.744,0-65.162-9.889-91.593-26.85c4.666,0.557,9.435,0.838,14.247,0.838
	c28.004,0,53.767-9.551,74.222-25.58c-26.154-0.486-48.219-17.764-55.821-41.498c3.646,0.695,7.385,1.064,11.244,1.064
	c5.441,0,10.73-0.727,15.74-2.099c-27.332-5.485-47.938-29.636-47.938-58.589c0-0.25,0-0.504,0.005-0.758
	c8.053,4.488,17.272,7.175,27.063,7.482c-16.025-10.713-26.582-29.011-26.582-49.738c0-10.95,2.95-21.222,8.093-30.045
	c29.475,36.164,73.509,59.953,123.172,62.444c-1.025-4.376-1.556-8.936-1.556-13.619c0-32.996,26.761-59.756,59.756-59.756
	c17.198,0,32.729,7.255,43.629,18.864c13.605-2.678,26.4-7.647,37.946-14.497c-4.47,13.962-13.939,25.66-26.279,33.054
	c12.086-1.435,23.61-4.648,34.323-9.399C395.126,191.649,384.996,202.171,373.312,210.594z"/>
</svg>
